# xmcd
#
# Track frame offsets:
#	150
#	12884
#	24896
#	37313
#	47897
#	59685
#	72078
#	82133
#	94438
#	106424
#	120326
#	131724
#
# Disc length: 1903
#
# Revision: 1
# Processed by: cddbd v1.5.1PL0 Copyright (c) Steve Scherf et al.
# Submitted via: Grip 2.96
# Normalized: r0:DSETVAR1
#
DISCID=a8076d0c
DTITLE=Various Artist - office CD 4
DYEAR=1900
DGENRE=
TTITLE0=Bobby Dare - Detroit City
TTITLE1=Dolly Parton - Jolene
TTITLE2=Jim Reeves - I love you because
TTITLE3=Waylon Jennings - Only daddy that'll walk the line
TTITLE4=Skeeter Davis - The end of the world
TTITLE5=Hank Snow - I'm movin'on
TTITLE6=Charley Pride - Is anybody goning to San Antone
TTITLE7=Bobby Bare - 500 miles away from Home
TTITLE8=Willie Nelson - Funny how time slips away
TTITLE9=Dolly Parton - Coat of many colours
TTITLE10=Jim Reeves - Adios amigos
TTITLE11=Waylon Jennings - Anita, youäre dreaming
EXTD=
EXTT0=
EXTT1=
EXTT2=
EXTT3=
EXTT4=
EXTT5=
EXTT6=
EXTT7=
EXTT8=
EXTT9=
EXTT10=
EXTT11=
PLAYORDER=
